<svg width="90" height="147" viewBox="0 0 90 147" fill="none" xmlns="http://www.w3.org/2000/svg">
<ellipse cx="45" cy="73.5" rx="45" ry="73.5" fill="#700000"/>
<ellipse cx="33.5" cy="73.5" rx="33.5" ry="73.5" fill="#BB0000"/>
<ellipse cx="22" cy="73.5" rx="22" ry="73.5" fill="#FF8A00"/>
<g filter="url(#filter0_bdi_7_13)">
<path fill-rule="evenodd" clip-rule="evenodd" d="M42.3105 23.0249L42.2115 23L42.1288 23.06L38.1794 25.925L38.113 25.9731L38.0942 26.0532L37.2166 29.7997L37.6183 29.9636L38.8816 27.8489L43.01 27.2269L44.7547 30.7317L43.3775 33.4981L43.3544 33.5447V33.5967V39.3267V39.4463L42.0898 40.9474L41.8462 41.2366L42.2169 41.3064L43.8094 41.6063L43.7603 41.6155L44.0838 41.9134L44.6753 42.458L43.0187 43.9832L36.5971 46.3482L32.3732 42.742L31.5047 34.4552L31.0748 34.4202L29.1001 41.6929L29.0831 41.7555L29.1026 41.8173L31.72 50.1426L30.6599 56.9574H28.3402L26.24 53.3712V47.2605V46.8099L25.8858 47.0865L24.1465 48.4453L21.6254 41.6926L20.3203 34.2647L21.6262 28.7997L21.2381 28.6149L17.0692 34.1245L17 34.216L17.0351 34.3254L21.152 47.166L18.8815 48.6173L18.6096 48.791L18.8702 48.9814L21.1539 50.6496L19.8882 54.4635L19.7919 54.7536H20.0963H23.4948L29.1339 62.596L29.1859 62.6683L29.2732 62.6839L34.8405 63.6825L32.065 65.3551L26.8138 67.5528L26.7867 67.5641L26.7635 67.5822L24.7888 69.1249L24.7336 69.168L24.7134 69.2352L21.2154 80.8736L19.2683 83.2639L18.7881 83.8534L19.5075 83.6125L20.5421 83.2661L20.9741 101.921L20.9757 101.993L21.0195 102.05L23.2137 104.915L23.6037 104.743L22.7293 99.6928V84.363L25.1429 85.1089V89.51L23.6413 91.8801L23.6024 91.9415L23.6075 92.0141L24.2658 101.27L24.268 101.302L24.2792 101.332L25.575 104.803L25.1459 107.389L25.0516 107.957L25.4994 107.597L26.24 107.002V114.478V114.539L26.2712 114.591L30.2207 121.202L30.2514 121.254L30.3038 121.283L35.1309 123.927L35.2638 124L35.3788 123.901L38.4506 121.256L38.901 120.869H38.3078H34.4297L29.7218 117.43L27.7759 110.48V105.25L35.096 111.342L35.1401 111.378L35.1964 111.389L45.8098 113.347L45.815 113.371L45.8718 113.358L45.9477 113.372L45.9536 113.34L54.811 111.387L54.863 111.376L54.904 111.342L62.2241 105.25V110.48L60.2782 117.43L55.5703 120.869H51.6922H51.099L51.5494 121.256L54.6212 123.901L54.7362 124L54.8691 123.927L59.6962 121.283L59.7486 121.254L59.7793 121.202L63.7288 114.591L63.76 114.539V114.478V107.002L64.5006 107.597L64.9484 107.957L64.8541 107.389L64.425 104.803L65.7208 101.332L65.732 101.302L65.7342 101.27L66.3925 92.0141L66.3976 91.9415L66.3587 91.8801L64.8571 89.51V85.1089L67.2707 84.363V99.6928L66.3963 104.743L66.7863 104.915L68.9805 102.05L69.0243 101.993L69.0259 101.921L69.4579 83.2661L70.4925 83.6125L71.2119 83.8534L70.7317 83.2639L68.7846 80.8736L65.2866 69.2352L65.2664 69.168L65.2112 69.1249L63.2365 67.5822L63.2133 67.5641L63.1862 67.5528L57.935 65.3551L55.1595 63.6825L60.7268 62.6839L60.8141 62.6683L60.8661 62.596L66.5052 54.7536H69.9037H70.2081L70.1118 54.4635L68.8461 50.6496L71.1298 48.9814L71.3904 48.791L71.1185 48.6173L68.848 47.166L72.9649 34.3254L73 34.216L72.9308 34.1245L68.7619 28.6149L68.3738 28.7997L69.6797 34.2647L68.3746 41.6926L65.8535 48.4453L64.1142 47.0865L63.76 46.8099V47.2605V53.3712L61.6598 56.9574H59.3401L58.28 50.1426L60.8974 41.8173L60.9169 41.7555L60.8999 41.6929L58.9252 34.4202L58.4953 34.4552L57.6268 42.742L53.4029 46.3482L46.9813 43.9832L45.3247 42.458L45.9162 41.9134L46.2397 41.6155L46.1906 41.6063L47.7831 41.3064L48.1538 41.2366L47.9102 40.9474L46.6456 39.4463V39.3267V33.5967V33.5447L46.6225 33.4981L45.2453 30.7317L46.99 27.2269L51.1184 27.8489L52.3817 29.9636L52.7834 29.7997L51.9058 26.0532L51.887 25.9731L51.8206 25.925L47.8712 23.06L47.7885 23L47.6895 23.0249L45 23.7002L42.3105 23.0249ZM45 24.1545L45.7147 24.334L45.81 23.9511L47.6969 23.4773L51.4973 26.2342L52.0339 28.5247L51.4415 27.5329L51.3882 27.4438L51.2859 27.4284L46.8976 26.7672L46.74 26.7435L46.6688 26.8866L45 30.2389L43.3312 26.8866L43.26 26.7435L43.1024 26.7672L38.7141 27.4284L38.6118 27.4438L38.5585 27.5329L37.9661 28.5247L38.5027 26.2342L42.3031 23.4773L44.19 23.9511L44.2853 24.334L45 24.1545ZM45 31.2245L43.7932 33.6487V38.9254L44.5034 38.0824L44.6261 37.9368L44.7872 38.0379L45 38.1715L45.2128 38.0379L45.3739 37.9368L45.4966 38.0824L46.2068 38.9254V33.6487L45 31.2245ZM45 38.6913L45.9226 39.2704L47.3316 40.9429L45 41.3821L42.6684 40.9429L44.0774 39.2704L45 38.6913ZM45 41.8305L44.7038 41.8863L45 42.159L45.2962 41.8863L45 41.8305ZM45 42.7569L43.2832 44.3376L43.2512 44.367L43.2105 44.382L36.628 46.8063L36.5079 46.8505L36.4104 46.7673L32.0221 43.0207L31.9552 42.9636L31.946 42.8759L31.1907 35.6688L29.5405 41.7464L32.154 50.0591L32.1695 50.1084L32.1616 50.1595L31.0645 57.2118L31.0355 57.3982H30.8477H28.2147H28.0892L28.0256 57.2895L25.8314 53.543L25.8011 53.4913V53.4312V47.7111L24.1805 48.9771L23.9451 49.1611L23.8404 48.8806L21.2074 41.8283L21.2003 41.8092L21.1967 41.7892L19.8803 34.2962L19.8723 34.251L19.883 34.2064L20.9558 29.7164L17.4879 34.2997L21.6217 47.1929L21.6736 47.355L21.5306 47.4464L19.3889 48.8153L21.5419 50.388L21.6718 50.4829L21.621 50.636L20.4008 54.3128H23.607H23.7192L23.7849 54.4041L29.4377 62.2657L35.494 63.352L36.0704 63.4553L35.5683 63.7579L32.2771 65.7413L32.2634 65.7496L32.2486 65.7558L27.0097 67.9483L25.1133 69.4298L21.6229 81.0429L21.6103 81.0849L21.5826 81.1188L20.0881 82.9535L20.6852 82.7536L20.967 82.6593L20.9739 82.9576L21.4111 101.838L23.0189 103.938L22.2937 99.7496L22.2905 99.7309V99.7119V84.0646V83.7662L22.5744 83.854L25.4268 84.7355L25.5817 84.7834V84.9461V89.5742V89.6384L25.5474 89.6925L24.0504 92.0553L24.7012 101.207L26.0066 104.703L26.0272 104.759L26.0176 104.817L25.673 106.893L26.3223 106.372L26.6788 106.085V106.544V114.417L30.5663 120.924L35.2082 123.467L37.7147 121.309H34.3583H34.287L34.2293 121.267L29.4021 117.741L29.3406 117.696L29.32 117.623L27.3452 110.57L27.337 110.541V110.511V104.781V104.312L27.6965 104.611L35.3319 110.965L45.8641 112.908L54.665 110.968L62.3035 104.611L62.663 104.312V104.781V110.511V110.541L62.6548 110.57L60.68 117.623L60.6594 117.696L60.5979 117.741L55.7707 121.267L55.713 121.309H55.6417H52.2853L54.7918 123.467L59.4337 120.924L63.3212 114.417V106.544V106.085L63.6777 106.372L64.327 106.893L63.9824 104.817L63.9728 104.759L63.9934 104.703L65.2988 101.207L65.9496 92.0553L64.4526 89.6925L64.4183 89.6384V89.5742V84.9461V84.7834L64.5732 84.7355L67.4256 83.854L67.7095 83.7662V84.0646V99.7119V99.7309L67.7063 99.7496L66.9811 103.938L68.5889 101.838L69.0261 82.9576L69.033 82.6593L69.3148 82.7536L69.9119 82.9535L68.4174 81.1188L68.3897 81.0849L68.3771 81.0429L64.8867 69.4298L62.9903 67.9483L57.7514 65.7558L57.7366 65.7496L57.7229 65.7413L54.4317 63.7579L53.9296 63.4553L54.506 63.352L60.5623 62.2657L66.2151 54.4041L66.2808 54.3128H66.393H69.5992L68.379 50.636L68.3282 50.4829L68.4581 50.388L70.6111 48.8153L68.4694 47.4464L68.3264 47.355L68.3783 47.1929L72.5121 34.2997L69.0442 29.7164L70.117 34.2064L70.1277 34.251L70.1197 34.2962L68.8033 41.7892L68.7997 41.8092L68.7926 41.8283L66.1596 48.8806L66.0549 49.1611L65.8195 48.9771L64.1989 47.7111V53.4312V53.4913L64.1686 53.543L61.9744 57.2895L61.9108 57.3982H61.7853H59.1523H58.9645L58.9355 57.2118L57.8384 50.1595L57.8305 50.1084L57.846 50.0591L60.4595 41.7464L58.8093 35.6688L58.054 42.8759L58.0448 42.9636L57.9779 43.0207L53.5896 46.7673L53.4921 46.8505L53.372 46.8063L46.7895 44.382L46.7488 44.367L46.7168 44.3376L45 42.7569Z" fill="black" fill-opacity="0.51" shape-rendering="crispEdges"/>
<path d="M45 42.7569L43.2832 44.3376L43.2512 44.367L43.2105 44.382L36.628 46.8063L36.5079 46.8505L36.4104 46.7673L32.0221 43.0207L31.9552 42.9636L31.946 42.8759L31.1907 35.6688L29.5405 41.7464L32.154 50.0591L32.1695 50.1084L32.1616 50.1595L31.0645 57.2118L31.0355 57.3982H30.8477H28.2147H28.0892L28.0256 57.2895L25.8314 53.543L25.8011 53.4913V53.4312V47.7111L24.1805 48.9771L23.9451 49.1611L23.8404 48.8806L21.2074 41.8283L21.2003 41.8092L21.1967 41.7892L19.8803 34.2962L19.8723 34.251L19.883 34.2064L20.9558 29.7164L17.4879 34.2997L21.6217 47.1929L21.6736 47.355L21.5306 47.4464L19.3889 48.8153L21.5419 50.388L21.6718 50.4829L21.621 50.636L20.4008 54.3128H23.607H23.7192L23.7849 54.4041L29.4377 62.2657L35.494 63.352L36.0704 63.4553L35.5683 63.7579L32.2771 65.7413L32.2634 65.7496L32.2486 65.7558L27.0097 67.9483L25.1133 69.4298L21.6229 81.0429L21.6103 81.0849L21.5826 81.1188L20.0881 82.9535L20.6852 82.7536L20.967 82.6593L20.9739 82.9576L21.4111 101.838L23.0189 103.938L22.2937 99.7496L22.2905 99.7309V99.7119V84.0646V83.7662L22.5744 83.854L25.4268 84.7355L25.5817 84.7834V84.9461V89.5742V89.6384L25.5474 89.6925L24.0504 92.0553L24.7012 101.207L26.0066 104.703L26.0272 104.759L26.0176 104.817L25.673 106.893L26.3223 106.372L26.6788 106.085V106.544V114.417L30.5663 120.924L35.2082 123.467L37.7147 121.309H34.3583H34.287L34.2293 121.267L29.4021 117.741L29.3406 117.696L29.32 117.623L27.3452 110.57L27.337 110.541V110.511V104.781V104.312L27.6965 104.611L35.3319 110.965L45.8641 112.908L54.665 110.968L62.3035 104.611L62.663 104.312V104.781V110.511V110.541L62.6548 110.57L60.68 117.623L60.6594 117.696L60.5979 117.741L55.7707 121.267L55.713 121.309H55.6417H52.2853L54.7918 123.467L59.4337 120.924L63.3212 114.417V106.544V106.085L63.6777 106.372L64.327 106.893L63.9824 104.817L63.9728 104.759L63.9934 104.703L65.2988 101.207L65.9496 92.0553L64.4526 89.6925L64.4183 89.6384V89.5742V84.9461V84.7834L64.5732 84.7355L67.4256 83.854L67.7095 83.7662V84.0646V99.7119V99.7309L67.7063 99.7496L66.9811 103.938L68.5889 101.838L69.0261 82.9576L69.033 82.6593L69.3148 82.7536L69.9119 82.9535L68.4174 81.1188L68.3897 81.0849L68.3771 81.0429L64.8867 69.4298L62.9903 67.9483L57.7514 65.7558L57.7366 65.7496L57.7229 65.7413L54.4317 63.7579L53.9296 63.4553L54.506 63.352L60.5623 62.2657L66.2151 54.4041L66.2808 54.3128H66.393H69.5992L68.379 50.636L68.3282 50.4829L68.4581 50.388L70.6111 48.8153L68.4694 47.4464L68.3264 47.355L68.3783 47.1929L72.5121 34.2997L69.0442 29.7164L70.117 34.2064L70.1277 34.251L70.1197 34.2962L68.8033 41.7892L68.7997 41.8092L68.7926 41.8283L66.1596 48.8806L66.0549 49.1611L65.8195 48.9771L64.1989 47.7111V53.4312V53.4913L64.1686 53.543L61.9744 57.2895L61.9108 57.3982H61.7853H59.1523H58.9645L58.9355 57.2118L57.8384 50.1595L57.8305 50.1084L57.846 50.0591L60.4595 41.7464L58.8093 35.6688L58.054 42.8759L58.0448 42.9636L57.9779 43.0207L53.5896 46.7673L53.4921 46.8505L53.372 46.8063L46.7895 44.382L46.7488 44.367L46.7168 44.3376L45 42.7569Z" fill="black" fill-opacity="0.51" shape-rendering="crispEdges"/>
<path d="M43.7932 33.6487L45 31.2245L46.2068 33.6487V38.9254L45.4966 38.0824L45.3739 37.9368L45.2128 38.0379L45 38.1715L44.7872 38.0379L44.6261 37.9368L44.5034 38.0824L43.7932 38.9254V33.6487Z" fill="black" fill-opacity="0.51" shape-rendering="crispEdges"/>
<path d="M45.9226 39.2704L45 38.6913L44.0774 39.2704L42.6684 40.9429L45 41.3821L47.3316 40.9429L45.9226 39.2704Z" fill="black" fill-opacity="0.51" shape-rendering="crispEdges"/>
<path d="M45.7147 24.334L45 24.1545L44.2853 24.334L44.19 23.9511L42.3031 23.4773L38.5027 26.2342L37.9661 28.5247L38.5585 27.5329L38.6118 27.4438L38.7141 27.4284L43.1024 26.7672L43.26 26.7435L43.3312 26.8866L45 30.2389L46.6688 26.8866L46.74 26.7435L46.8976 26.7672L51.2859 27.4284L51.3882 27.4438L51.4415 27.5329L52.0339 28.5247L51.4973 26.2342L47.6969 23.4773L45.81 23.9511L45.7147 24.334Z" fill="black" fill-opacity="0.51" shape-rendering="crispEdges"/>
<path fill-rule="evenodd" clip-rule="evenodd" d="M42.3105 23.0249L42.2115 23L42.1288 23.06L38.1794 25.925L38.113 25.9731L38.0942 26.0532L37.2166 29.7997L37.6183 29.9636L38.8816 27.8489L43.01 27.2269L44.7547 30.7317L43.3775 33.4981L43.3544 33.5447V33.5967V39.3267V39.4463L42.0898 40.9474L41.8462 41.2366L42.2169 41.3064L43.8094 41.6063L43.7603 41.6155L44.0838 41.9134L44.6753 42.458L43.0187 43.9832L36.5971 46.3482L32.3732 42.742L31.5047 34.4552L31.0748 34.4202L29.1001 41.6929L29.0831 41.7555L29.1026 41.8173L31.72 50.1426L30.6599 56.9574H28.3402L26.24 53.3712V47.2605V46.8099L25.8858 47.0865L24.1465 48.4453L21.6254 41.6926L20.3203 34.2647L21.6262 28.7997L21.2381 28.6149L17.0692 34.1245L17 34.216L17.0351 34.3254L21.152 47.166L18.8815 48.6173L18.6096 48.791L18.8702 48.9814L21.1539 50.6496L19.8882 54.4635L19.7919 54.7536H20.0963H23.4948L29.1339 62.596L29.1859 62.6683L29.2732 62.6839L34.8405 63.6825L32.065 65.3551L26.8138 67.5528L26.7867 67.5641L26.7635 67.5822L24.7888 69.1249L24.7336 69.168L24.7134 69.2352L21.2154 80.8736L19.2683 83.2639L18.7881 83.8534L19.5075 83.6125L20.5421 83.2661L20.9741 101.921L20.9757 101.993L21.0195 102.05L23.2137 104.915L23.6037 104.743L22.7293 99.6928V84.363L25.1429 85.1089V89.51L23.6413 91.8801L23.6024 91.9415L23.6075 92.0141L24.2658 101.27L24.268 101.302L24.2792 101.332L25.575 104.803L25.1459 107.389L25.0516 107.957L25.4994 107.597L26.24 107.002V114.478V114.539L26.2712 114.591L30.2207 121.202L30.2514 121.254L30.3038 121.283L35.1309 123.927L35.2638 124L35.3788 123.901L38.4506 121.256L38.901 120.869H38.3078H34.4297L29.7218 117.43L27.7759 110.48V105.25L35.096 111.342L35.1401 111.378L35.1964 111.389L45.8098 113.347L45.815 113.371L45.8718 113.358L45.9477 113.372L45.9536 113.34L54.811 111.387L54.863 111.376L54.904 111.342L62.2241 105.25V110.48L60.2782 117.43L55.5703 120.869H51.6922H51.099L51.5494 121.256L54.6212 123.901L54.7362 124L54.8691 123.927L59.6962 121.283L59.7486 121.254L59.7793 121.202L63.7288 114.591L63.76 114.539V114.478V107.002L64.5006 107.597L64.9484 107.957L64.8541 107.389L64.425 104.803L65.7208 101.332L65.732 101.302L65.7342 101.27L66.3925 92.0141L66.3976 91.9415L66.3587 91.8801L64.8571 89.51V85.1089L67.2707 84.363V99.6928L66.3963 104.743L66.7863 104.915L68.9805 102.05L69.0243 101.993L69.0259 101.921L69.4579 83.2661L70.4925 83.6125L71.2119 83.8534L70.7317 83.2639L68.7846 80.8736L65.2866 69.2352L65.2664 69.168L65.2112 69.1249L63.2365 67.5822L63.2133 67.5641L63.1862 67.5528L57.935 65.3551L55.1595 63.6825L60.7268 62.6839L60.8141 62.6683L60.8661 62.596L66.5052 54.7536H69.9037H70.2081L70.1118 54.4635L68.8461 50.6496L71.1298 48.9814L71.3904 48.791L71.1185 48.6173L68.848 47.166L72.9649 34.3254L73 34.216L72.9308 34.1245L68.7619 28.6149L68.3738 28.7997L69.6797 34.2647L68.3746 41.6926L65.8535 48.4453L64.1142 47.0865L63.76 46.8099V47.2605V53.3712L61.6598 56.9574H59.3401L58.28 50.1426L60.8974 41.8173L60.9169 41.7555L60.8999 41.6929L58.9252 34.4202L58.4953 34.4552L57.6268 42.742L53.4029 46.3482L46.9813 43.9832L45.3247 42.458L45.9162 41.9134L46.2397 41.6155L46.1906 41.6063L47.7831 41.3064L48.1538 41.2366L47.9102 40.9474L46.6456 39.4463V39.3267V33.5967V33.5447L46.6225 33.4981L45.2453 30.7317L46.99 27.2269L51.1184 27.8489L52.3817 29.9636L52.7834 29.7997L51.9058 26.0532L51.887 25.9731L51.8206 25.925L47.8712 23.06L47.7885 23L47.6895 23.0249L45 23.7002L42.3105 23.0249ZM45 24.1545L45.7147 24.334L45.81 23.9511L47.6969 23.4773L51.4973 26.2342L52.0339 28.5247L51.4415 27.5329L51.3882 27.4438L51.2859 27.4284L46.8976 26.7672L46.74 26.7435L46.6688 26.8866L45 30.2389L43.3312 26.8866L43.26 26.7435L43.1024 26.7672L38.7141 27.4284L38.6118 27.4438L38.5585 27.5329L37.9661 28.5247L38.5027 26.2342L42.3031 23.4773L44.19 23.9511L44.2853 24.334L45 24.1545ZM45 31.2245L43.7932 33.6487V38.9254L44.5034 38.0824L44.6261 37.9368L44.7872 38.0379L45 38.1715L45.2128 38.0379L45.3739 37.9368L45.4966 38.0824L46.2068 38.9254V33.6487L45 31.2245ZM45 38.6913L45.9226 39.2704L47.3316 40.9429L45 41.3821L42.6684 40.9429L44.0774 39.2704L45 38.6913ZM45 41.8305L44.7038 41.8863L45 42.159L45.2962 41.8863L45 41.8305ZM45 42.7569L43.2832 44.3376L43.2512 44.367L43.2105 44.382L36.628 46.8063L36.5079 46.8505L36.4104 46.7673L32.0221 43.0207L31.9552 42.9636L31.946 42.8759L31.1907 35.6688L29.5405 41.7464L32.154 50.0591L32.1695 50.1084L32.1616 50.1595L31.0645 57.2118L31.0355 57.3982H30.8477H28.2147H28.0892L28.0256 57.2895L25.8314 53.543L25.8011 53.4913V53.4312V47.7111L24.1805 48.9771L23.9451 49.1611L23.8404 48.8806L21.2074 41.8283L21.2003 41.8092L21.1967 41.7892L19.8803 34.2962L19.8723 34.251L19.883 34.2064L20.9558 29.7164L17.4879 34.2997L21.6217 47.1929L21.6736 47.355L21.5306 47.4464L19.3889 48.8153L21.5419 50.388L21.6718 50.4829L21.621 50.636L20.4008 54.3128H23.607H23.7192L23.7849 54.4041L29.4377 62.2657L35.494 63.352L36.0704 63.4553L35.5683 63.7579L32.2771 65.7413L32.2634 65.7496L32.2486 65.7558L27.0097 67.9483L25.1133 69.4298L21.6229 81.0429L21.6103 81.0849L21.5826 81.1188L20.0881 82.9535L20.6852 82.7536L20.967 82.6593L20.9739 82.9576L21.4111 101.838L23.0189 103.938L22.2937 99.7496L22.2905 99.7309V99.7119V84.0646V83.7662L22.5744 83.854L25.4268 84.7355L25.5817 84.7834V84.9461V89.5742V89.6384L25.5474 89.6925L24.0504 92.0553L24.7012 101.207L26.0066 104.703L26.0272 104.759L26.0176 104.817L25.673 106.893L26.3223 106.372L26.6788 106.085V106.544V114.417L30.5663 120.924L35.2082 123.467L37.7147 121.309H34.3583H34.287L34.2293 121.267L29.4021 117.741L29.3406 117.696L29.32 117.623L27.3452 110.57L27.337 110.541V110.511V104.781V104.312L27.6965 104.611L35.3319 110.965L45.8641 112.908L54.665 110.968L62.3035 104.611L62.663 104.312V104.781V110.511V110.541L62.6548 110.57L60.68 117.623L60.6594 117.696L60.5979 117.741L55.7707 121.267L55.713 121.309H55.6417H52.2853L54.7918 123.467L59.4337 120.924L63.3212 114.417V106.544V106.085L63.6777 106.372L64.327 106.893L63.9824 104.817L63.9728 104.759L63.9934 104.703L65.2988 101.207L65.9496 92.0553L64.4526 89.6925L64.4183 89.6384V89.5742V84.9461V84.7834L64.5732 84.7355L67.4256 83.854L67.7095 83.7662V84.0646V99.7119V99.7309L67.7063 99.7496L66.9811 103.938L68.5889 101.838L69.0261 82.9576L69.033 82.6593L69.3148 82.7536L69.9119 82.9535L68.4174 81.1188L68.3897 81.0849L68.3771 81.0429L64.8867 69.4298L62.9903 67.9483L57.7514 65.7558L57.7366 65.7496L57.7229 65.7413L54.4317 63.7579L53.9296 63.4553L54.506 63.352L60.5623 62.2657L66.2151 54.4041L66.2808 54.3128H66.393H69.5992L68.379 50.636L68.3282 50.4829L68.4581 50.388L70.6111 48.8153L68.4694 47.4464L68.3264 47.355L68.3783 47.1929L72.5121 34.2997L69.0442 29.7164L70.117 34.2064L70.1277 34.251L70.1197 34.2962L68.8033 41.7892L68.7997 41.8092L68.7926 41.8283L66.1596 48.8806L66.0549 49.1611L65.8195 48.9771L64.1989 47.7111V53.4312V53.4913L64.1686 53.543L61.9744 57.2895L61.9108 57.3982H61.7853H59.1523H58.9645L58.9355 57.2118L57.8384 50.1595L57.8305 50.1084L57.846 50.0591L60.4595 41.7464L58.8093 35.6688L58.054 42.8759L58.0448 42.9636L57.9779 43.0207L53.5896 46.7673L53.4921 46.8505L53.372 46.8063L46.7895 44.382L46.7488 44.367L46.7168 44.3376L45 42.7569Z" stroke="white" shape-rendering="crispEdges"/>
<path d="M45 42.7569L43.2832 44.3376L43.2512 44.367L43.2105 44.382L36.628 46.8063L36.5079 46.8505L36.4104 46.7673L32.0221 43.0207L31.9552 42.9636L31.946 42.8759L31.1907 35.6688L29.5405 41.7464L32.154 50.0591L32.1695 50.1084L32.1616 50.1595L31.0645 57.2118L31.0355 57.3982H30.8477H28.2147H28.0892L28.0256 57.2895L25.8314 53.543L25.8011 53.4913V53.4312V47.7111L24.1805 48.9771L23.9451 49.1611L23.8404 48.8806L21.2074 41.8283L21.2003 41.8092L21.1967 41.7892L19.8803 34.2962L19.8723 34.251L19.883 34.2064L20.9558 29.7164L17.4879 34.2997L21.6217 47.1929L21.6736 47.355L21.5306 47.4464L19.3889 48.8153L21.5419 50.388L21.6718 50.4829L21.621 50.636L20.4008 54.3128H23.607H23.7192L23.7849 54.4041L29.4377 62.2657L35.494 63.352L36.0704 63.4553L35.5683 63.7579L32.2771 65.7413L32.2634 65.7496L32.2486 65.7558L27.0097 67.9483L25.1133 69.4298L21.6229 81.0429L21.6103 81.0849L21.5826 81.1188L20.0881 82.9535L20.6852 82.7536L20.967 82.6593L20.9739 82.9576L21.4111 101.838L23.0189 103.938L22.2937 99.7496L22.2905 99.7309V99.7119V84.0646V83.7662L22.5744 83.854L25.4268 84.7355L25.5817 84.7834V84.9461V89.5742V89.6384L25.5474 89.6925L24.0504 92.0553L24.7012 101.207L26.0066 104.703L26.0272 104.759L26.0176 104.817L25.673 106.893L26.3223 106.372L26.6788 106.085V106.544V114.417L30.5663 120.924L35.2082 123.467L37.7147 121.309H34.3583H34.287L34.2293 121.267L29.4021 117.741L29.3406 117.696L29.32 117.623L27.3452 110.57L27.337 110.541V110.511V104.781V104.312L27.6965 104.611L35.3319 110.965L45.8641 112.908L54.665 110.968L62.3035 104.611L62.663 104.312V104.781V110.511V110.541L62.6548 110.57L60.68 117.623L60.6594 117.696L60.5979 117.741L55.7707 121.267L55.713 121.309H55.6417H52.2853L54.7918 123.467L59.4337 120.924L63.3212 114.417V106.544V106.085L63.6777 106.372L64.327 106.893L63.9824 104.817L63.9728 104.759L63.9934 104.703L65.2988 101.207L65.9496 92.0553L64.4526 89.6925L64.4183 89.6384V89.5742V84.9461V84.7834L64.5732 84.7355L67.4256 83.854L67.7095 83.7662V84.0646V99.7119V99.7309L67.7063 99.7496L66.9811 103.938L68.5889 101.838L69.0261 82.9576L69.033 82.6593L69.3148 82.7536L69.9119 82.9535L68.4174 81.1188L68.3897 81.0849L68.3771 81.0429L64.8867 69.4298L62.9903 67.9483L57.7514 65.7558L57.7366 65.7496L57.7229 65.7413L54.4317 63.7579L53.9296 63.4553L54.506 63.352L60.5623 62.2657L66.2151 54.4041L66.2808 54.3128H66.393H69.5992L68.379 50.636L68.3282 50.4829L68.4581 50.388L70.6111 48.8153L68.4694 47.4464L68.3264 47.355L68.3783 47.1929L72.5121 34.2997L69.0442 29.7164L70.117 34.2064L70.1277 34.251L70.1197 34.2962L68.8033 41.7892L68.7997 41.8092L68.7926 41.8283L66.1596 48.8806L66.0549 49.1611L65.8195 48.9771L64.1989 47.7111V53.4312V53.4913L64.1686 53.543L61.9744 57.2895L61.9108 57.3982H61.7853H59.1523H58.9645L58.9355 57.2118L57.8384 50.1595L57.8305 50.1084L57.846 50.0591L60.4595 41.7464L58.8093 35.6688L58.054 42.8759L58.0448 42.9636L57.9779 43.0207L53.5896 46.7673L53.4921 46.8505L53.372 46.8063L46.7895 44.382L46.7488 44.367L46.7168 44.3376L45 42.7569Z" stroke="white" shape-rendering="crispEdges"/>
<path d="M43.7932 33.6487L45 31.2245L46.2068 33.6487V38.9254L45.4966 38.0824L45.3739 37.9368L45.2128 38.0379L45 38.1715L44.7872 38.0379L44.6261 37.9368L44.5034 38.0824L43.7932 38.9254V33.6487Z" stroke="white" shape-rendering="crispEdges"/>
<path d="M45.9226 39.2704L45 38.6913L44.0774 39.2704L42.6684 40.9429L45 41.3821L47.3316 40.9429L45.9226 39.2704Z" stroke="white" shape-rendering="crispEdges"/>
<path d="M45.7147 24.334L45 24.1545L44.2853 24.334L44.19 23.9511L42.3031 23.4773L38.5027 26.2342L37.9661 28.5247L38.5585 27.5329L38.6118 27.4438L38.7141 27.4284L43.1024 26.7672L43.26 26.7435L43.3312 26.8866L45 30.2389L46.6688 26.8866L46.74 26.7435L46.8976 26.7672L51.2859 27.4284L51.3882 27.4438L51.4415 27.5329L52.0339 28.5247L51.4973 26.2342L47.6969 23.4773L45.81 23.9511L45.7147 24.334Z" stroke="white" shape-rendering="crispEdges"/>
</g>
<defs>
<filter id="filter0_bdi_7_13" x="11" y="17" width="68" height="115" filterUnits="userSpaceOnUse" color-interpolation-filters="sRGB">
<feFlood flood-opacity="0" result="BackgroundImageFix"/>
<feGaussianBlur in="BackgroundImage" stdDeviation="3"/>
<feComposite in2="SourceAlpha" operator="in" result="effect1_backgroundBlur_7_13"/>
<feColorMatrix in="SourceAlpha" type="matrix" values="0 0 0 0 0 0 0 0 0 0 0 0 0 0 0 0 0 0 127 0" result="hardAlpha"/>
<feOffset dy="4"/>
<feGaussianBlur stdDeviation="2"/>
<feComposite in2="hardAlpha" operator="out"/>
<feColorMatrix type="matrix" values="0 0 0 0 0 0 0 0 0 0 0 0 0 0 0 0 0 0 0.09 0"/>
<feBlend mode="normal" in2="effect1_backgroundBlur_7_13" result="effect2_dropShadow_7_13"/>
<feBlend mode="normal" in="SourceGraphic" in2="effect2_dropShadow_7_13" result="shape"/>
<feColorMatrix in="SourceAlpha" type="matrix" values="0 0 0 0 0 0 0 0 0 0 0 0 0 0 0 0 0 0 127 0" result="hardAlpha"/>
<feOffset dy="4"/>
<feGaussianBlur stdDeviation="2"/>
<feComposite in2="hardAlpha" operator="arithmetic" k2="-1" k3="1"/>
<feColorMatrix type="matrix" values="0 0 0 0 0 0 0 0 0 0 0 0 0 0 0 0 0 0 1 0"/>
<feBlend mode="normal" in2="shape" result="effect3_innerShadow_7_13"/>
</filter>
</defs>
</svg>
